<svg width="60" height="61" viewBox="0 0 60 61" fill="none" xmlns="http://www.w3.org/2000/svg">
<g clip-path="url(#clip0_1_2)">
<path d="M3.161 12.322C1.416 12.322 0 10.906 0 9.161C0 7.415 1.416 6 3.161 6H55.841C57.586 6 59.002 7.415 59.002 9.161C59.002 10.906 57.586 12.322 55.841 12.322H3.161Z" fill="white"/>
<path d="M3.162 33.394C1.415 33.394 0 31.979 0 30.232C0 28.487 1.415 27.071 3.161 27.071H55.84C57.585 27.071 59 28.487 59 30.232C59 31.978 57.585 33.393 55.84 33.393L3.162 33.394Z" fill="white"/>
<path d="M3.162 54.465C1.415 54.465 0 53.049 0 51.303C0 49.558 1.415 48.143 3.162 48.143H55.84C57.586 48.143 59.002 49.558 59.002 51.303C59.002 53.049 57.586 54.465 55.84 54.465H3.162Z" fill="white"/>
</g>
<defs>
<clipPath id="clip0_1_2">
<rect width="59.002" height="60.5812" fill="white"/>
</clipPath>
</defs>
</svg>
